<svg width="25" height="25" viewBox="0 0 25 25" fill="none" xmlns="http://www.w3.org/2000/svg">
<path id="Vector" d="M21.456 4.48528C16.7696 -0.201079 9.17178 -0.201079 4.48542 4.48528C-0.200938 9.17164 -0.200939 16.7695 4.48542 21.4558C9.17178 26.1422 16.7696 26.1422 21.456 21.4558C26.1423 16.7695 26.1423 9.17164 21.456 4.48528ZM5.92461 20.0167C2.03934 16.1314 2.03934 9.80974 5.92461 5.92447C9.80988 2.0392 16.1315 2.0392 20.0168 5.92447C23.9021 9.80974 23.9021 16.1314 20.0168 20.0167C16.1315 23.9019 9.80988 23.9019 5.92461 20.0167ZM17.6031 9.77736L16.1639 8.33817L12.9707 11.5314L9.7775 8.33817L8.33831 9.77736L11.5315 12.9706L8.33831 16.1638L9.7775 17.603L12.9707 14.4098L16.1639 17.603L17.6031 16.1638L14.4099 12.9706L17.6031 9.77736Z" fill="#AAAAAA"/>
</svg>
