<svg width="142" height="30" viewBox="0 0 142 30" fill="none" xmlns="http://www.w3.org/2000/svg">
<path d="M11.9002 18.6454C11.8663 18.6762 11.8324 18.7101 11.7985 18.7409C13.383 16.5028 13.383 13.491 11.7985 11.2529C11.8324 11.2837 11.8663 11.3176 11.9002 11.3485C14.5822 13.7314 21.8051 14.2093 28.0816 14.9985C25.1776 8.66339 23.2108 4.02384 20.5319 1.64087C17.8499 -0.7421 13.7468 -0.501645 11.3638 2.18035C9.31994 4.48009 9.20897 7.82797 10.9106 10.2387C8.36429 7.87421 4.38137 7.9297 1.90283 10.4082C-0.634277 12.9453 -0.634277 17.0577 1.90283 19.5918C4.38137 22.0703 8.36429 22.1258 10.9106 19.7613C9.20897 22.172 9.31994 25.5199 11.3638 27.8196C13.7468 30.5016 17.853 30.7421 20.5319 28.3591C23.2139 25.9762 25.1776 21.3366 28.0816 15.0015C21.8051 15.7907 14.5822 16.2686 11.9002 18.6515V18.6454Z" fill="#E64B38"/>
<path d="M123.419 9.16309H120.317V20.8282H123.419V9.16309Z" fill="#01677F"/>
<path d="M136.037 9.16309H129.819L124.402 20.8282H127.898L129.014 18.2788H136.841L137.957 20.8282H141.468L136.037 9.16309ZM129.964 16.1116L132.498 10.3006H133.367L135.901 16.1116H129.961H129.964Z" fill="#01677F"/>
<path d="M52.8239 9.16309H49.7227V20.8282H52.8239V9.16309Z" fill="#01677F"/>
<path d="M72.9108 9.16309H69.8096V20.8282H72.9108V9.16309Z" fill="#01677F"/>
<path d="M95.3104 15.9698H102.089V14.0462H95.3104V11.4474H104.318V9.16309H92.2246V20.8282H104.58V18.547H95.3104V15.9698Z" fill="#01677F"/>
<path d="M37.0863 9.16309L31.6699 20.8282H35.1658L36.2817 18.2788H44.1088L45.2248 20.8282H48.7361L43.3042 9.16309H37.0863ZM37.2343 16.1116L39.7683 10.3006H40.6377L43.1717 16.1116H37.2312H37.2343Z" fill="#01677F"/>
<path d="M83.019 19.6907H82.1496L77.6519 9.16309H74.1406L79.4584 20.8282H85.6763L91.0095 9.16309H87.5136L83.019 19.6907Z" fill="#01677F"/>
<path d="M66.8287 15.387C67.5347 14.7705 67.8861 13.9505 67.8861 12.9301C67.8861 11.7185 67.3867 10.7875 66.3848 10.1402C65.3829 9.48971 63.9648 9.16602 62.1275 9.16602H54.957V20.8312H58.0583V11.2006H62.1275C62.9383 11.2006 63.5579 11.3548 63.9895 11.6661C64.4211 11.9775 64.6369 12.4214 64.6369 12.9979C64.6369 13.6083 64.4211 14.0738 63.9895 14.3882C63.5579 14.7057 62.9352 14.863 62.1275 14.863H59.1742V15.6213L64.7047 20.8281H68.2499L63.7552 16.5955C65.1024 16.4074 66.1259 16.0036 66.8318 15.387H66.8287Z" fill="#01677F"/>
<path d="M117.676 15.387C118.382 14.7705 118.734 13.9505 118.734 12.9301C118.734 11.7185 118.234 10.7875 117.232 10.1402C116.231 9.48971 114.813 9.16602 112.975 9.16602H105.805V20.8312H108.906V11.2006H112.975C113.786 11.2006 114.406 11.3548 114.837 11.6661C115.269 11.9775 115.485 12.4214 115.485 12.9979C115.485 13.6083 115.269 14.0738 114.837 14.3882C114.406 14.7057 113.783 14.863 112.975 14.863H110.022V15.6213L115.552 20.8281H119.098L114.6 16.5955C115.947 16.4074 116.97 16.0036 117.676 15.387Z" fill="#01677F"/>
</svg>
