<svg width="134" height="30" viewBox="0 0 134 30" fill="none" xmlns="http://www.w3.org/2000/svg">
<g id="Group 105134">
<g id="Group 105130">
<g id="Group 105128">
<path id="Vector 15" d="M31.9406 10.6631L26.6855 21.8364H30.1039L34.9507 10.8672L39.8486 21.8364H43.2669L37.9609 10.6631H31.9406Z" fill="white"/>
<rect id="Rectangle 1786" x="30.9189" y="17.2441" width="7.95905" height="2.14282" fill="white"/>
</g>
<g id="Group 105129">
<path id="Vector 15_2" d="M121.988 10.6631L116.733 21.8364H120.152L124.999 10.8672L129.896 21.8364H133.315L128.009 10.6631H121.988Z" fill="white"/>
<rect id="Rectangle 1786_2" x="120.967" y="17.2441" width="7.95905" height="2.14282" fill="white"/>
</g>
<rect id="Rectangle 1787" x="44.2861" y="10.6143" width="2.95913" height="11.2243" fill="white"/>
<rect id="Rectangle 1789" x="63.6738" y="10.6143" width="2.95913" height="11.2243" fill="white"/>
<rect id="Rectangle 1793" x="112.754" y="10.6143" width="2.95913" height="11.2243" fill="white"/>
<path id="Rectangle 1791" d="M97.1947 10.6143H85.4092V21.8386H97.5008V19.6447H88.5214V17.0427H95.46V15.3591H88.5214V12.8591H97.1947V10.6143Z" fill="white"/>
<path id="Rectangle 1790" d="M71.3277 10.6143H67.8584L73.0624 21.8386H79.1337L84.3887 10.6143H80.9194L76.1236 21.5835L71.3277 10.6143Z" fill="white"/>
<path id="Rectangle 1788" d="M52.2453 10.6143H49.2861V21.8386H52.2453V12.655H57.0411C57.6023 12.655 58.7248 13.0122 58.7248 14.2877C58.7248 15.7672 57.6023 16.1244 57.0411 16.1244H52.6024L58.7248 21.8386H62.1941L57.8064 17.706C60.7145 17.706 61.888 15.8183 61.888 14.2877C61.888 11.3081 58.7248 10.6146 57.0411 10.6143H52.2453Z" fill="white"/>
<path id="Rectangle 1792" d="M101.631 10.6143H98.6719V21.8386H101.631V12.655H106.427C106.988 12.655 108.11 13.0122 108.11 14.2877C108.11 15.7672 106.988 16.1244 106.427 16.1244H101.988L108.11 21.8386H111.58L107.192 17.706C110.1 17.706 111.274 15.8183 111.274 14.2877C111.274 11.3081 108.11 10.6146 106.427 10.6143H101.631Z" fill="white"/>
</g>
<g id="Group 105131">
<ellipse id="Ellipse 29" cx="6.22439" cy="14.9998" rx="6.22439" ry="6.22439" fill="#EA4C2C"/>
<g id="Group 105132">
<path id="Ellipse 31" d="M14.8972 0C11.4596 0 8.67285 2.78675 8.67285 6.22439C8.67285 9.04139 10.5442 11.4213 13.1116 12.1888C14.8292 12.8877 19.7441 14.51 25.6624 14.9998C23.7032 9.1223 21.2832 4.62577 20.3181 3.16321C19.2493 1.27464 17.2221 0 14.8972 0Z" fill="#EA4C2C"/>
<path id="Ellipse 32" d="M14.8972 29.999C11.4596 29.999 8.67285 27.2123 8.67285 23.7746C8.67285 20.9576 10.5442 18.5777 13.1116 17.8102C14.8292 17.1113 19.7441 15.4891 25.6624 14.9993C23.7032 20.8767 21.2832 25.3733 20.3181 26.8358C19.2493 28.7244 17.2221 29.999 14.8972 29.999Z" fill="#EA4C2C"/>
</g>
</g>
</g>
</svg>
