<svg width="143" height="32" viewBox="0 0 143 32" fill="none" xmlns="http://www.w3.org/2000/svg">
<g id="Group 105134">
<g id="Group 105130">
<g id="Group 105128">
<path id="Vector 15" d="M34.0702 11.3738L28.4648 23.292H32.111L37.281 11.5915L42.5054 23.292H46.1516L40.4919 11.3738H34.0702Z" fill="white"/>
<rect id="Rectangle 1786" x="32.9805" y="18.3938" width="8.48966" height="2.28568" fill="white"/>
</g>
<g id="Group 105129">
<path id="Vector 15_2" d="M130.121 11.3738L124.516 23.292H128.162L133.332 11.5915L138.556 23.292H142.202L136.543 11.3738H130.121Z" fill="white"/>
<rect id="Rectangle 1786_2" x="129.031" y="18.3938" width="8.48966" height="2.28568" fill="white"/>
</g>
<rect id="Rectangle 1787" x="47.2383" y="11.3215" width="3.15641" height="11.9726" fill="white"/>
<rect id="Rectangle 1789" x="67.9189" y="11.3215" width="3.15641" height="11.9726" fill="white"/>
<rect id="Rectangle 1793" x="120.271" y="11.3215" width="3.15641" height="11.9726" fill="white"/>
<path id="Rectangle 1791" d="M103.675 11.3215H91.1035V23.2941H104.001V20.954H94.4232V18.1786H101.824V16.3827H94.4232V13.7161H103.675V11.3215Z" fill="white"/>
<path id="Rectangle 1790" d="M76.0834 11.3215H72.3828L77.9337 23.2941H84.4098L90.0152 11.3215H86.3146L81.199 23.022L76.0834 11.3215Z" fill="white"/>
<path id="Rectangle 1788" d="M55.7287 11.3215H52.5723V23.2941H55.7287V13.4984H60.8442C61.4429 13.4984 62.6401 13.8793 62.6401 15.2398C62.6401 16.818 61.4429 17.199 60.8442 17.199H56.1096L62.6401 23.2941H66.3408L61.6606 18.886C64.7626 18.886 66.0142 16.8725 66.0142 15.2398C66.0142 12.0617 62.6401 11.3218 60.8442 11.3215H55.7287Z" fill="white"/>
<path id="Rectangle 1792" d="M108.406 11.3215H105.25V23.2941H108.406V13.4984H113.522C114.121 13.4984 115.318 13.8793 115.318 15.2398C115.318 16.818 114.121 17.199 113.522 17.199H108.787L115.318 23.2941H119.018L114.338 18.886C117.44 18.886 118.692 16.8725 118.692 15.2398C118.692 12.0617 115.318 11.3218 113.522 11.3215H108.406Z" fill="white"/>
</g>
<g id="Group 105131">
<ellipse id="Ellipse 29" cx="6.63935" cy="15.9997" rx="6.63935" ry="6.63935" fill="white"/>
<g id="Group 105132">
<path id="Ellipse 31" d="M15.8903 0C12.2235 0 9.25098 2.97254 9.25098 6.63935C9.25098 9.64416 11.2471 12.1827 13.9856 13.0014C15.8178 13.7469 21.0603 15.4773 27.3731 15.9998C25.2834 9.73046 22.702 4.93416 21.6726 3.3741C20.5326 1.35962 18.3702 0 15.8903 0Z" fill="white"/>
<path id="Ellipse 32" d="M15.8903 31.9995C12.2235 31.9995 9.25098 29.027 9.25098 25.3602C9.25098 22.3554 11.2471 19.8168 13.9856 18.9981C15.8178 18.2526 21.0603 16.5222 27.3731 15.9998C25.2834 22.2691 22.702 27.0653 21.6726 28.6254C20.5326 30.6399 18.3702 31.9995 15.8903 31.9995Z" fill="white"/>
</g>
</g>
</g>
</svg>
