<svg width="24" height="24" viewBox="0 0 24 24" fill="none" xmlns="http://www.w3.org/2000/svg">
<g id="Open" clip-path="url(#clip0_158_788)">
<path id="Vector" d="M12 0C5.37249 0 0 5.37249 0 12C0 18.6275 5.37249 24 12 24C18.6275 24 24 18.6275 24 12C24 5.37249 18.6275 0 12 0ZM12 21.9647C6.5054 21.9647 2.03532 17.4946 2.03532 12C2.03532 6.5054 6.5054 2.03532 12 2.03532C17.4946 2.03532 21.9647 6.5054 21.9647 12C21.9647 17.4946 17.4946 21.9647 12 21.9647ZM13.0177 6.46647H10.9823V10.9823H6.46647V13.0177H10.9823V17.5335H13.0177V13.0177H17.5335V10.9823H13.0177V6.46647Z" fill="#AAAAAA"/>
</g>
<defs>
<clipPath id="clip0_158_788">
<rect width="24" height="24" fill="white"/>
</clipPath>
</defs>
</svg>
